@startuml
scale 2048 width
scale 1538 height

database psql [
    <b> PostgreSQL
    ==
    grid
    --
    assets
    --
    types
    --
    weather
    __
    time series
]
database influxdb [
    <b> InfluxDB
    ==
    weather
    --
    time series
]

'Not yet implemented
'database neo4j [
'    <b> Neo4J
'    ==
'    grid
'    --
'    assets
']
folder projName.tar.gz {
folder assets {
file ev.csv
file pv.csv
file wec.csv
file asset_xyz.csv
}
folder grid
folder types
}
folder resources {
file projName_model.conf
file projName_simulation.conf
file load_parameter
file load_profiles
file wholesale_prices
}
'Not yet implemented
'cloud streams [
'streams
'==
'weather
']
interface grid_source
interface assets_source
interface types_source
interface thermal_source
interface weather_source
interface time_series_source
interface config_source
agent inputAccumulator
node "Simulation"

grid_source --> psql
grid_source --> grid

assets_source --> psql
assets_source --> assets

types_source --> psql
types_source --> types

thermal_source --> psql
thermal_source --> types

weather_source --> psql
weather_source --> influxdb

time_series_source --> psql
time_series_source --> influxdb

config_source --> inputAccumulator

inputAccumulator --> grid_source
inputAccumulator --> assets_source
inputAccumulator --> types_source
inputAccumulator --> weather_source
inputAccumulator --> time_series_source
inputAccumulator --> thermal_source

projName_model.conf --> config_source

config_source --> Simulation

inputAccumulator --> Simulation

@enduml